<?xml version="1.0" encoding="UTF-8" standalone="no"?>
<!-- Created with Inkscape (http://www.inkscape.org/) -->

<svg
   xmlns:dc="http://purl.org/dc/elements/1.1/"
   xmlns:cc="http://creativecommons.org/ns#"
   xmlns:rdf="http://www.w3.org/1999/02/22-rdf-syntax-ns#"
   xmlns:svg="http://www.w3.org/2000/svg"
   xmlns="http://www.w3.org/2000/svg"
   xmlns:sodipodi="http://sodipodi.sourceforge.net/DTD/sodipodi-0.dtd"
   xmlns:inkscape="http://www.inkscape.org/namespaces/inkscape"
   version="1.1"
   id="svg2"
   xml:space="preserve"
   width="113.38667"
   height="113.38533"
   viewBox="0 0 113.38667 113.38533"
   sodipodi:docname="rs_crn.svg"
   inkscape:version="0.92.4 (5da689c313, 2019-01-14)"><metadata
     id="metadata8"><rdf:RDF><cc:Work
         rdf:about=""><dc:format>image/svg+xml</dc:format><dc:type
           rdf:resource="http://purl.org/dc/dcmitype/StillImage" /><dc:title></dc:title></cc:Work></rdf:RDF></metadata><defs
     id="defs6"><clipPath
       clipPathUnits="userSpaceOnUse"
       id="clipPath22"><path
         d="M 0,283.465 H 283.465 V 0 H 0 Z"
         id="path20"
         inkscape:connector-curvature="0" /></clipPath></defs><sodipodi:namedview
     pagecolor="#ffffff"
     bordercolor="#666666"
     borderopacity="1"
     objecttolerance="10"
     gridtolerance="10"
     guidetolerance="10"
     inkscape:pageopacity="0"
     inkscape:pageshadow="2"
     inkscape:window-width="1246"
     inkscape:window-height="1358"
     id="namedview4"
     showgrid="false"
     inkscape:zoom="1.7661143"
     inkscape:cx="-3.7672604"
     inkscape:cy="-2.6765408"
     inkscape:window-x="1288"
     inkscape:window-y="56"
     inkscape:window-maximized="0"
     inkscape:current-layer="g10"
     fit-margin-top="0"
     fit-margin-left="0"
     fit-margin-right="0"
     fit-margin-bottom="0" /><g
     id="g10"
     inkscape:groupmode="layer"
     inkscape:label="0.1.logotip_cb_pozitiv"
     transform="matrix(1.3333333,0,0,-1.3333333,-132.2832,245.66973)"><g
       id="g12"
       transform="translate(133.3574,162.6426)"><path
         d="M 0,0 H -0.035 L -3.539,-5.444 H 0 Z"
         style="fill:#0c0016;fill-opacity:1;fill-rule:nonzero;stroke:none"
         id="path14"
         inkscape:connector-curvature="0" /></g><circle
       style="opacity:1;fill:#ffffff;fill-opacity:1;stroke:none;stroke-width:196.73007202;stroke-linejoin:round;stroke-miterlimit:4;stroke-dasharray:none;stroke-opacity:1"
       id="path837"
       cx="141.80759"
       cy="-141.65742"
       r="39.261703"
       transform="scale(1,-1)" /><g
       id="g16"><g
         id="g18"
         clip-path="url(#clipPath22)"><g
           id="g24"
           transform="translate(139.7144,146.9453)"><path
             d="m 0,0 h -2.522 v -10.427 h 2.486 c 3.231,0 5.251,1.887 5.251,5.175 0,0.734 -0.156,1.482 -0.422,2.174 C 3.944,-1.017 2.195,0 0,0"
             style="fill:#0c0016;fill-opacity:1;fill-rule:nonzero;stroke:none"
             id="path26"
             inkscape:connector-curvature="0" /></g><g
           id="g28"
           transform="translate(153.3047,130.8086)"><path
             d="m 0,0 c -1.674,0 -2.904,-1.462 -2.904,-3.078 0,-1.617 1.191,-3.177 2.884,-3.177 1.637,0 2.946,1.445 2.946,3.041 C 2.926,-1.54 1.771,0 0,0"
             style="fill:#0c0016;fill-opacity:1;fill-rule:nonzero;stroke:none"
             id="path30"
             inkscape:connector-curvature="0" /></g><g
           id="g32"
           transform="translate(143.8945,124.8643)"><path
             d="m 0,0 c -1.422,0 -2.5,-1.251 -2.5,-2.639 0,-1.366 1.098,-2.54 2.482,-2.54 1.366,0 2.522,1.155 2.522,2.523 C 2.504,-1.251 1.443,0 0,0"
             style="fill:#0c0016;fill-opacity:1;fill-rule:nonzero;stroke:none"
             id="path34"
             inkscape:connector-curvature="0" /></g><g
           id="g36"
           transform="translate(123.7188,160.7793)"><path
             d="M 0,0 C 0,1.807 -1.502,2.654 -3.155,2.654 H -5.35 v -5.446 h 1.423 C -2.08,-2.792 0,-2.273 0,0"
             style="fill:#0c0016;fill-opacity:1;fill-rule:nonzero;stroke:none"
             id="path38"
             inkscape:connector-curvature="0" /></g><g
           id="g40"
           transform="translate(157.9512,152.7344)"><path
             d="m 0,0 c 2.348,0 4.16,1.347 4.969,3.521 0.228,0.598 0.363,1.251 0.363,1.907 0,3.021 -2.232,5.54 -5.332,5.54 -2.209,0 -3.963,-1.192 -4.83,-3.211 C -5.135,7.042 -5.328,6.272 -5.328,5.484 -5.328,4.695 -5.135,3.907 -4.83,3.175 -3.943,1.172 -2.191,0 0,0"
             style="fill:#0c0016;fill-opacity:1;fill-rule:nonzero;stroke:none"
             id="path42"
             inkscape:connector-curvature="0" /></g><g
           id="g44"
           transform="translate(143.8945,126.9014)"><path
             d="m 0,0 c 1.176,0 1.869,0.907 1.869,2.021 0,1.019 -0.81,1.886 -1.848,1.886 -1.078,0 -1.867,-0.925 -1.867,-1.963 C -1.846,0.907 -1.057,0 0,0"
             style="fill:#0c0016;fill-opacity:1;fill-rule:nonzero;stroke:none"
             id="path46"
             inkscape:connector-curvature="0" /></g><g
           id="g48"
           transform="translate(171.5254,146.9453)"><path
             d="M 0,0 V -12.333 H -2.078 V 1.907 H 2.943 V 0 Z m -3.385,-12.333 h -2.158 l -7.041,11.007 h -0.041 v -11.007 h -2.074 v 14.24 h 2.267 l 6.93,-10.834 h 0.037 V 0 h -3.021 v 1.907 h 5.101 z m -5.592,-16.753 c -2.502,0 -4.58,1.942 -4.599,4.463 h 2.002 c 0.076,-1.559 1.097,-2.637 2.654,-2.637 1.426,0 2.559,1.213 2.559,2.616 0,1.499 -1.192,2.563 -2.655,2.563 h -0.73 v 2.001 h 0.691 c 1.215,0 2.08,0.77 2.08,1.98 0,1.079 -0.808,1.963 -1.906,1.963 -1.195,0 -1.789,-0.884 -1.904,-2.003 h -1.998 c 0.092,1.675 0.92,2.965 2.517,3.562 0.463,0.155 0.961,0.27 1.444,0.27 2.269,0 3.849,-1.696 3.849,-3.946 0,-1.269 -0.404,-1.943 -1.31,-2.771 1.232,-0.789 1.924,-2.079 1.924,-3.54 0,-2.695 -1.961,-4.521 -4.618,-4.521 m -5.273,0.268 h -2.002 v 2.347 h 2.002 z m -6.473,0 3.022,4.677 c -0.27,-0.04 -0.559,-0.079 -0.828,-0.079 -2.674,0 -4.6,2.195 -4.6,4.812 0,2.751 2.061,5.1 4.889,5.1 2.023,0 3.638,-1.06 4.486,-2.886 0.268,-0.597 0.461,-1.289 0.461,-1.943 0,-1.235 -0.445,-2.407 -1.098,-3.426 l -3.964,-6.255 z m -6.908,-0.268 c -2.48,0 -4.502,1.963 -4.502,4.463 0,1.578 0.617,2.732 1.867,3.655 -0.828,0.809 -1.212,1.541 -1.212,2.734 0,2.154 1.731,3.926 3.886,3.926 2.137,0 3.83,-1.81 3.83,-3.908 0,-1.233 -0.365,-1.963 -1.269,-2.752 1.23,-0.826 1.904,-2.118 1.904,-3.597 0,-2.482 -2.019,-4.521 -4.504,-4.521 m -5.294,0.268 h -2.079 v 12.028 h -0.059 l -4.79,-12.028 h -1.249 l -4.812,12.028 h -0.039 v -12.028 h -2.078 v 12.334 h -5.12 v -4.27 h 3.721 v -1.906 h -3.721 v -6.158 h -2.077 v 14.24 h 7.197 3.27 l 4.274,-10.913 4.289,10.913 h 3.273 z M -62.531,-8.12 h 2.08 c 0,-1.383 0.807,-2.576 2.31,-2.576 1.422,0 2.289,1.019 2.289,2.402 0,1.522 -1.097,1.869 -2.289,2.332 -2.214,0.847 -3.984,1.501 -3.984,4.272 0,2.212 1.809,3.867 3.984,3.867 2.367,0 4.079,-1.559 4.079,-3.966 h -2.08 c 0,1.235 -0.767,2.061 -1.999,2.061 -1.041,0 -1.904,-0.904 -1.904,-1.944 0,-3.021 6.273,-1.211 6.273,-6.622 0,-2.56 -1.831,-4.307 -4.369,-4.307 -2.599,0 -4.39,1.905 -4.39,4.481 m 8.73,8.12 v 1.907 h 5.02 v -14.24 h -2.077 V 0 Z m 11.118,-10.696 c 0.771,0 2.694,0.384 2.694,3.021 v 9.582 h 2.08 v -9.64 c 0,-1.616 -0.499,-2.829 -1.443,-3.657 -0.867,-0.77 -2.021,-1.211 -3.331,-1.211 -1.305,0 -2.463,0.441 -3.326,1.211 -0.946,0.828 -1.445,2.041 -1.445,3.657 v 9.64 h 5.081 V 0 h -3.003 v -7.675 c 0,-2.637 1.926,-3.021 2.693,-3.021 M -58.179,6.058 h 2.942 v 12.335 h 4.408 c 1.348,0 2.791,-0.212 3.791,-1.193 0.906,-0.865 1.309,-2.136 1.309,-3.366 0,-1.926 -0.846,-3.445 -2.694,-4.1 -0.424,-0.154 -0.923,-0.269 -1.386,-0.269 l 2.627,-3.504 8.536,12.432 h 0.478 2.08 2.54 c 2.29,0 4.445,-0.695 5.81,-2.617 0.925,-1.29 1.463,-2.945 1.463,-4.542 0,-1.654 -0.596,-3.831 -1.791,-5.023 -1.556,-1.539 -3.423,-2.058 -5.56,-2.058 h -2.462 -2.08 v 4.196 h -4.849 l -2.839,-4.157 0.03,-0.039 h -0.058 -2.539 l -4.697,6.599 h -0.036 V 4.153 h -10e-4 V 4.151 h -5.022 z m 33.659,-11.31 c 0,-1.656 -0.593,-3.83 -1.789,-5.021 -1.558,-1.54 -3.421,-2.06 -5.562,-2.06 h -4.539 v 14.24 h 4.618 c 2.292,0 4.446,-0.693 5.812,-2.618 0.921,-1.289 1.46,-2.942 1.46,-4.541 m -0.056,23.645 h 2.078 V 4.154 h -2.078 z m 8.383,-22.587 v -1.905 h -5.602 v -4.328 h 5.602 v -1.906 h -7.684 v 14.24 h 7.684 V 0 h -5.602 v -4.194 z m 2.619,22.856 c 4.16,0 7.41,-3.29 7.41,-7.428 0,-4.06 -3.346,-7.349 -7.41,-7.349 -4.08,0 -7.408,3.309 -7.408,7.388 0,4.119 3.312,7.389 7.408,7.389 m -16.219,18.645 c -23.483,-0.001 -42.52,-19.036 -42.52,-42.519 0,-23.483 19.037,-42.518 42.52,-42.52 23.482,0.002 42.518,19.037 42.52,42.52 -0.002,23.483 -19.038,42.518 -42.52,42.519"
             style="fill:#0c0016;fill-opacity:1;fill-rule:nonzero;stroke:none"
             id="path50"
             inkscape:connector-curvature="0" /></g><g
           id="g52"
           transform="translate(143.1719,158.1797)"><path
             d="m 0,0 c 0,0.73 -0.154,1.482 -0.42,2.175 -0.848,2.058 -2.599,3.079 -4.794,3.079 h -2.521 v -10.43 h 2.484 C -2.018,-5.176 0,-3.29 0,0"
             style="fill:#0c0016;fill-opacity:1;fill-rule:nonzero;stroke:none"
             id="path54"
             inkscape:connector-curvature="0" /></g></g></g></g></svg>